<svg xmlns="http://www.w3.org/2000/svg" width="232.63" height="152.63" viewBox="0 0 232.63 152.63"><defs><style>.cls-1{isolation:isolate;}.cls-2{fill:#fff;stroke:#fff;stroke-miterlimit:10;stroke-width:0.63px;opacity:0;}.cls-3,.cls-4{fill:#008cff;}.cls-4{mix-blend-mode:multiply;}</style></defs><g class="cls-1"><g id="Layer_2" data-name="Layer 2"><g id="Layer_1-2" data-name="Layer 1"><g id="r"><rect class="cls-2" x="0.31" y="0.31" width="232" height="152"/><rect class="cls-3" x="196.35" y="13.49" width="3.51" height="43.45"/><rect class="cls-3" x="181.57" y="24.35" width="3.51" height="72.38"/><rect class="cls-3" x="137.24" y="35.2" width="3.51" height="32.6"/><rect class="cls-3" x="137.24" y="85.88" width="3.51" height="43.5"/><rect class="cls-3" x="122.47" y="85.88" width="3.51" height="32.34"/><rect class="cls-3" x="122.47" y="13.43" width="3.51" height="54.37"/><rect class="cls-3" x="85.49" y="56.96" width="3.51" height="10.84"/><rect class="cls-3" x="85.49" y="85.88" width="3.51" height="21.72"/><rect class="cls-3" x="107.69" y="85.88" width="3.51" height="32.34"/><rect class="cls-3" x="107.69" y="46.14" width="3.51" height="21.66"/><rect class="cls-3" x="115.09" y="46.07" width="3.51" height="21.73"/><rect class="cls-3" x="115.09" y="85.88" width="3.51" height="43.5"/><rect class="cls-3" x="129.86" y="85.88" width="3.51" height="43.5"/><rect class="cls-3" x="129.86" y="35.2" width="3.51" height="32.6"/><rect class="cls-3" x="152.04" y="46.07" width="3.51" height="21.73"/><rect class="cls-3" x="152.04" y="85.88" width="3.51" height="54.32"/><rect class="cls-3" x="159.41" y="85.88" width="3.51" height="43.5"/><rect class="cls-3" x="159.41" y="35.2" width="3.51" height="32.6"/><rect class="cls-3" x="174.18" y="85.88" width="3.51" height="32.58"/><rect class="cls-3" x="174.18" y="35.26" width="3.51" height="32.54"/><rect class="cls-3" x="188.96" y="24.44" width="3.51" height="83.16"/><rect class="cls-3" x="203.76" y="13.49" width="3.51" height="32.64"/><rect class="cls-3" x="203.76" y="96.76" width="3.51" height="43.39"/><rect class="cls-3" x="211.15" y="46.09" width="3.51" height="10.85"/><rect class="cls-3" x="100.28" y="85.88" width="3.51" height="21.72"/><rect class="cls-3" x="100.28" y="46.17" width="3.51" height="21.64"/><rect class="cls-3" x="92.89" y="85.88" width="3.51" height="10.87"/><rect class="cls-3" x="92.89" y="56.96" width="3.51" height="10.84"/><rect class="cls-3" x="70.71" y="85.88" width="3.51" height="21.72"/><rect class="cls-3" x="70.71" y="24.34" width="3.51" height="43.46"/><rect class="cls-3" x="78.1" y="46.38" width="3.51" height="21.42"/><rect class="cls-3" x="78.1" y="85.88" width="3.51" height="21.72"/><rect class="cls-3" x="63.31" y="85.88" width="3.51" height="21.72"/><rect class="cls-3" x="63.31" y="35.51" width="3.51" height="32.29"/><rect class="cls-3" x="55.92" y="85.88" width="3.51" height="10.87"/><rect class="cls-3" x="55.92" y="46.68" width="3.51" height="21.12"/><rect class="cls-3" x="48.53" y="46.68" width="3.51" height="50.05"/><rect class="cls-3" x="41.13" y="46.68" width="3.51" height="71.54"/><rect class="cls-4" x="33.74" y="56.94" width="3.51" height="72.38"/><rect class="cls-3" x="26.35" y="96.73" width="3.51" height="32.61"/><rect class="cls-3" x="18.96" y="96.74" width="3.51" height="10.85"/><rect class="cls-3" x="11.56" y="85.88" width="3.51" height="10.87"/><rect class="cls-3" x="218.55" y="46.07" width="3.51" height="21.73"/><rect class="cls-3" x="166.79" y="85.88" width="3.51" height="32.58"/><rect class="cls-3" x="166.79" y="35.2" width="3.51" height="32.6"/><rect class="cls-3" x="144.65" y="46.07" width="3.51" height="21.73"/><rect class="cls-3" x="144.65" y="85.88" width="3.51" height="54.32"/><rect class="cls-3" x="196.35" y="96.79" width="3.51" height="21.42"/><path class="cls-3" d="M62.43,82.27V71.44h4.13a3.51,3.51,0,0,1,2.7,1,3.46,3.46,0,0,1,1,2.44,3.42,3.42,0,0,1-1,2.43,3.5,3.5,0,0,1-2.68,1H63.7v3.9Zm1.27-5.18h2.86a2.34,2.34,0,0,0,1.76-.65A2.12,2.12,0,0,0,69,74.91a2.15,2.15,0,0,0-.63-1.54,2.34,2.34,0,0,0-1.76-.65H63.7Z"/><path class="cls-3" d="M75.57,71.44l3.92,10.83H78.14L76.88,78.8H72.71l-.53,1.48-.7,2H70.12L74,71.44Zm-2.43,6.07h3.3q-.33-.92-.87-2.46l-.78-2.23C74.2,74.52,73.65,76.09,73.14,77.51Z"/><path class="cls-3" d="M80,84.18V81h.3a1.65,1.65,0,0,0,1.43-1.23,19.43,19.43,0,0,0,.61-4.38l.24-4h6.25V81h1v3.18H88.63V82.27H81.31v1.91ZM82.64,81h4.93V72.71H84l-.23,3.44A11.15,11.15,0,0,1,82.64,81Z"/><path class="cls-3" d="M93.49,82.27H91.9V71.44h1.29v9l5.52-9h1.48V82.27H98.91V73.64Z"/><path class="cls-3" d="M102.77,79V74.68a2.88,2.88,0,0,1,1.29-2.5,5.14,5.14,0,0,1,3-.89,5.9,5.9,0,0,1,2.08.36,3.82,3.82,0,0,1,1.61,1.16,2.85,2.85,0,0,1,.64,1.87V79a2.88,2.88,0,0,1-.64,1.88,3.75,3.75,0,0,1-1.61,1.17,5.9,5.9,0,0,1-2.08.36,5.15,5.15,0,0,1-3-.9A2.89,2.89,0,0,1,102.77,79ZM104,74.68V79a1.76,1.76,0,0,0,.9,1.57,4.36,4.36,0,0,0,4.31,0,1.75,1.75,0,0,0,.91-1.57V74.68a1.77,1.77,0,0,0-.9-1.6,4.52,4.52,0,0,0-4.32,0A1.74,1.74,0,0,0,104,74.68Z"/><path class="cls-3" d="M113.94,82.27V71.44h4.27a4.48,4.48,0,0,1,1.54.26,3.22,3.22,0,0,1,1.14.69,4.17,4.17,0,0,1,.77,1,3.05,3.05,0,0,1,.37,1.19,5.72,5.72,0,0,1,0,1.24,3,3,0,0,1-.38,1.18,4.35,4.35,0,0,1-.76,1,3.22,3.22,0,0,1-1.14.69,4.37,4.37,0,0,1-1.52.25h-2v3.35Zm2.23-5.46h2a1.57,1.57,0,0,0,1.22-.48,1.52,1.52,0,0,0,.44-1.07,1.51,1.51,0,0,0-.44-1.07,1.54,1.54,0,0,0-1.22-.49h-2Z"/><path class="cls-3" d="M123.22,78.81V74.9a3.16,3.16,0,0,1,.65-2,3.63,3.63,0,0,1,1.64-1.23,5.68,5.68,0,0,1,2.13-.38,5.22,5.22,0,0,1,3.12.95,3.1,3.1,0,0,1,1.32,2.66v3.91a3.11,3.11,0,0,1-1.31,2.66,5.6,5.6,0,0,1-6.24,0A3.11,3.11,0,0,1,123.22,78.81Zm2.23-3.91v3.91a1.23,1.23,0,0,0,.65,1.11,3,3,0,0,0,1.55.39,2.91,2.91,0,0,0,1.54-.39,1.24,1.24,0,0,0,.65-1.11V74.9a1.26,1.26,0,0,0-.65-1.14,3,3,0,0,0-1.57-.39,2.82,2.82,0,0,0-1.53.4A1.29,1.29,0,0,0,125.45,74.9Z"/><path class="cls-3" d="M139.93,79.07l1.94,1.09a4.56,4.56,0,0,1-1.7,1.68,4.31,4.31,0,0,1-2.15.58,4.78,4.78,0,0,1-3-1,3.12,3.12,0,0,1-1.27-2.64v-4A3.14,3.14,0,0,1,135,72.24a4.85,4.85,0,0,1,3-.95,4.42,4.42,0,0,1,2.19.59,3.72,3.72,0,0,1,1.57,1.73l-1.8,1a2,2,0,0,0-.89-.88,2.54,2.54,0,0,0-1.24-.28,2.27,2.27,0,0,0-1.31.41,1.24,1.24,0,0,0-.54,1v4a1.19,1.19,0,0,0,.53,1,2.17,2.17,0,0,0,1.28.4A2.57,2.57,0,0,0,139,80,2,2,0,0,0,139.93,79.07Z"/><path class="cls-3" d="M149,79.07,151,80.16a4.66,4.66,0,0,1-1.71,1.68,4.29,4.29,0,0,1-2.15.58,4.8,4.8,0,0,1-3-1,3.12,3.12,0,0,1-1.27-2.64v-4a3.14,3.14,0,0,1,1.26-2.64,4.85,4.85,0,0,1,3-.95,4.45,4.45,0,0,1,2.2.59,3.77,3.77,0,0,1,1.57,1.73l-1.81,1a2,2,0,0,0-.89-.88,2.51,2.51,0,0,0-1.24-.28,2.23,2.23,0,0,0-1.3.41,1.22,1.22,0,0,0-.55,1v4a1.19,1.19,0,0,0,.53,1,2.17,2.17,0,0,0,1.28.4,2.52,2.52,0,0,0,1.23-.28A2,2,0,0,0,149,79.07Z"/><path class="cls-3" d="M158.49,76.87l.18-1.73h-.06l-.9,1.76-3.34,5.38h-2.23V71.44h2.25v5.83l-.17,1.53h.06l.84-1.69,3.46-5.68h2.16V82.27h-2.25Z"/><path class="cls-3" d="M169.19,76.87l.18-1.73h-.06l-.9,1.76-3.34,5.38h-2.23V71.44h2.25v5.83l-.17,1.53H165l.84-1.69,3.46-5.68h2.16V82.27h-2.25Z"/></g></g></g></g></svg>